<svg id="Capa_1" enable-background="new 0 0 512 512" height="20" viewBox="0 0 512 512" width="20" xmlns="http://www.w3.org/2000/svg"><g><path d="m355.34 20.154-15.912 9.578-15.283-20.209c-21.73-6.042-44.517-9.523-68.145-9.523-23.718 0-46.591 3.501-68.394 9.587l-14.48 19.946-16.474-9.375c-91.393 38.807-156.652 130.456-156.652 235.842 0 140.61 115.39 256 256 256s256-115.39 256-256c0-105.388-65.263-197.04-156.66-235.846z" fill="#c3ea21"/><path d="m512 256c0-105.388-65.263-197.04-156.66-235.846l-15.912 9.578-15.283-20.209c-21.73-6.042-44.517-9.523-68.145-9.523v512c140.61 0 256-115.39 256-256z" fill="#9cdd05"/><path d="m387.777 198.296-47.681-87.451c-5.947-10.913-9.096-23.306-9.096-35.845 0-21.028 8.992-40.655 24.34-54.846-10.054-4.268-20.533-7.667-31.196-10.631-14.791 18.452-23.144 41.353-23.144 65.477 0 17.534 4.409 34.893 12.759 50.2l47.681 88.466c9.521 17.446 14.56 37.266 14.56 57.334 0 66.167-53.833 120-120 120s-120-53.833-120-120c0-20.068 5.039-39.888 14.561-57.349l47.681-88.451c8.349-15.307 12.758-32.666 12.758-50.2 0-24.54-8.86-47.289-23.394-65.413-10.578 2.952-20.975 6.334-30.954 10.571 14.905 13.83 24.348 33.373 24.348 54.842 0 12.539-3.149 24.932-9.097 35.845l-47.681 87.437c-11.923 21.84-18.222 47.64-18.222 72.718 0 82.705 67.295 150 150 150s150-67.295 150-150c0-25.078-6.299-50.878-18.223-72.704z" fill="#fff5f5"/><path d="m406 271c0-25.078-6.299-50.878-18.223-72.704l-47.681-87.451c-5.947-10.913-9.096-23.306-9.096-35.845 0-21.028 8.992-40.655 24.34-54.846-10.054-4.268-20.533-7.667-31.196-10.631-14.791 18.452-23.144 41.353-23.144 65.477 0 17.534 4.409 34.893 12.759 50.2l47.681 88.466c9.521 17.446 14.56 37.266 14.56 57.334 0 66.167-53.833 120-120 120v30c82.705 0 150-67.295 150-150z" fill="#efe2dd"/></g></svg>