<svg height="40" fill="#FFF" outline="false" viewBox="0 0 512.00105 512" width="40" xmlns="http://www.w3.org/2000/svg"><path d="m491.363281 324.53125c-13-13.003906-30.28125-20.328125-48.65625-20.628906-.390625-.003906-.78125-.007813-1.167969-.007813-15.433593 0-30.203124 4.972657-42.375 14.171875l-62.089843-62.089844 62.089843-62.097656c12.480469 9.429688 27.714844 14.421875 43.542969 14.160156 18.378907-.296874 35.65625-7.621093 48.65625-20.621093 27.476563-27.476563 27.476563-72.179688 0-99.652344-12.484375-12.488281-29.132812-19.75-46.617187-20.546875-.792969-17.472656-8.054688-34.121094-20.554688-46.625-27.46875-27.460938-72.164062-27.453125-99.628906.011719-13.003906 13.003906-20.332031 30.285156-20.632812 48.660156-.257813 15.855469 4.730468 31.0625 14.164062 43.542969l-62.089844 62.097656-21.707031-21.703125c-2.96875-2.96875-7.78125-2.96875-10.753906 0-2.96875 2.96875-2.96875 7.785156 0 10.753906l164.414062 164.414063-19.636719 19.636718c-2.972656 2.96875-2.972656 7.785157 0 10.753907 1.484376 1.484375 3.429688 2.226562 5.375 2.226562 1.945313 0 3.894532-.742187 5.378907-2.226562l24.886719-24.886719c21.863281-20.335938 55.515624-19.726562 76.652343 1.410156 10.433594 10.433594 16.179688 24.308594 16.179688 39.070313 0 14.757812-5.746094 28.632812-16.179688 39.066406-9.796875 9.796875-22.855469 15.484375-36.570312 16.101563-1.3125-7.777344-3.898438-15.21875-7.746094-22.191407-2.027344-3.675781-6.652344-5.015625-10.328125-2.984375-3.679688 2.027344-5.015625 6.652344-2.984375 10.328125 3.628906 6.582031 5.820313 13.703125 6.5625 21.175781-.089844.566407-.117187 1.144532-.078125 1.722657 1.140625 16.015625-4.703125 31.695312-16.027344 43.019531-10.429687 10.429688-24.296875 16.171875-39.054687 16.171875h-.003907c-14.761718 0-28.632812-5.75-39.066406-16.183594-21.15625-21.15625-21.753906-54.851562-1.355468-76.714843 2.792968-2.996094 2.710937-7.664063-.183594-10.5625l-209.730469-209.726563 19.640625-19.640625c2.96875-2.96875 2.96875-7.785156 0-10.75-2.972656-2.972656-7.785156-2.972656-10.753906 0l-24.890625 24.882812c-21.859375 20.339844-55.515625 19.726563-76.648438-1.410156-21.542969-21.542968-21.542969-56.59375-.003906-78.136718 9.800781-9.796876 22.859375-15.480469 36.574219-16.101563 1.3125 7.777344 3.894531 15.21875 7.742187 22.191406 1.386719 2.515625 3.984375 3.933594 6.664063 3.933594 1.242187 0 2.503906-.304687 3.667968-.949219 3.675782-2.027344 5.011719-6.652344 2.984376-10.332031-3.628907-6.578125-5.824219-13.699219-6.566407-21.171875.089844-.566406.121094-1.144531.078125-1.726562-1.136718-16.011719 4.703125-31.691407 16.03125-43.019532 21.535156-21.53125 56.582032-21.527344 78.125.015625 21.15625 21.152344 21.75 54.851563 1.355469 76.710938-2.792969 2.996093-2.714844 7.667969.183594 10.566406l27.066406 27.066406c2.96875 2.96875 7.785156 2.96875 10.75 0 2.972656-2.972656 2.972656-7.785156.003906-10.753906l-22.144531-22.144531c9.433594-12.480469 14.421875-27.6875 14.164062-43.542969-.296874-18.375-7.625-35.65625-20.625-48.65625-27.472656-27.472656-72.167968-27.480469-99.632812-.011719-12.5 12.496094-19.761719 29.140625-20.550781 46.621094-17.480469.796875-34.128907 8.054688-46.625 20.550781-27.46875 27.472657-27.46875 72.171875 0 99.644531 13.003906 13.003907 30.285156 20.328126 48.660156 20.625 15.863281.257813 31.0625-4.726562 43.542969-14.160156l62.101562 62.101563-62.101562 62.089843c-12.480469-9.433593-27.703125-14.429687-43.542969-14.160156-18.378906.296875-35.660156 7.621094-48.660156 20.621094-13.308594 13.304688-20.636719 31-20.636719 49.824219 0 18.820312 7.328125 36.515625 20.636719 49.816406 12.484375 12.492187 29.128906 19.757813 46.621093 20.554687.789063 17.472657 8.050782 34.117188 20.550782 46.628907 13.734375 13.726562 31.769531 20.589843 49.804687 20.589843 18.042969 0 36.089844-6.871093 49.824219-20.613281 4.9375-4.933593 9.097656-10.53125 12.359375-16.636719 1.976563-3.703124.578125-8.308593-3.125-10.289062s-8.308594-.582031-10.289063 3.121094c-2.558593 4.785156-5.820312 9.171875-9.699218 13.050781-21.53125 21.546875-56.578125 21.554687-78.121094.023437-11.328125-11.335937-17.167969-27.015624-16.027344-43.019531.042969-.582031.011719-1.160156-.078125-1.726562.742188-7.476563 2.9375-14.59375 6.566407-21.175781 2.027343-3.679688.695312-8.304688-2.984376-10.332032-3.671874-2.027344-8.300781-.691406-10.328124 2.984375-3.847657 6.972657-6.433594 14.414063-7.746094 22.195313-13.726563-.625-26.78125-6.3125-36.574219-16.109375-10.433594-10.433594-16.183594-24.304688-16.183594-39.0625 0-14.761719 5.75-28.636719 16.183594-39.070313 21.144531-21.144531 54.8125-21.746094 76.675781-1.390625l24.863282 24.867188c1.488281 1.484375 3.433593 2.226562 5.378906 2.226562 1.945312 0 3.890625-.742187 5.378906-2.226562 2.96875-2.972657 2.96875-7.785157 0-10.753907l-19.636719-19.636718 61.644531-61.640625 59.550782 59.554687-67.011719 67.015625c-2.898437 2.894531-2.980469 7.566407-.1875 10.5625 10.394531 11.144531 15.625 25.675781 14.726563 40.921875-.246094 4.191406 2.953124 7.789063 7.148437 8.039063.148437.007812.300781.011719.453125.011719 3.992188 0 7.34375-3.117188 7.582031-7.160157.980469-16.6875-4.089843-33.277343-14.054687-46.539062l62.097656-62.097657 62.097656 62.097657c-9.433594 12.480469-14.421875 27.6875-14.164062 43.542969.296875 18.375 7.625 35.65625 20.625 48.65625 13.304687 13.308593 31 20.636718 49.820312 20.636718h.007813c18.816406 0 36.507812-7.324218 49.804687-20.625 12.496094-12.492187 19.757813-29.140625 20.554688-46.621094 17.476562-.792968 34.125-8.054687 46.617187-20.550781 13.308594-13.304687 20.636719-31 20.636719-49.820312 0-18.824219-7.328125-36.519531-20.636719-49.824219zm-157.59375-205.894531c2.898438-2.898438 2.980469-7.570313.183594-10.566407-20.390625-21.859374-19.792969-55.554687 1.363281-76.710937 21.539063-21.539063 56.585938-21.542969 78.121094-.015625 11.328125 11.335938 17.171875 27.015625 16.03125 43.023438-.042969.582031-.011719 1.160156.078125 1.726562-.742187 7.476562-2.933594 14.59375-6.5625 21.171875-2.03125 3.679687-.695313 8.304687 2.980469 10.332031 1.164062.644532 2.425781.949219 3.667968.949219 2.679688 0 5.277344-1.421875 6.664063-3.933594 3.847656-6.96875 6.429687-14.410156 7.742187-22.191406 13.722657.625 26.78125 6.304687 36.570313 16.09375 10.4375 10.4375 16.183594 24.3125 16.183594 39.074219 0 14.757812-5.746094 28.636718-16.183594 39.070312-21.132813 21.136719-54.789063 21.746094-76.65625 1.40625l-24.878906-24.882812c-2.972657-2.96875-7.785157-2.96875-10.753907 0-2.972656 2.96875-2.972656 7.785156 0 10.753906l19.636719 19.636719-61.636719 61.648437-59.5625-59.5625zm0 0"/></svg>