<svg id="Capa_1" enable-background="new 0 0 512 512" height="50" viewBox="0 0 512 512" width="50" xmlns="http://www.w3.org/2000/svg"><g><g><g><g><g><g><path d="m478.402 511.989h-444.038v-330.023l222.019-127.469 222.019 127.469z" fill="#714343"/><path d="m256.383 54.498v457.491h222.019v-330.023z" fill="#b68661"/></g><g><path d="m351.348 511.989h63.527v-366.496l-63.527-36.473z" fill="#8e5f4f"/><path d="m414.875 511.989h63.527v-330.023l-63.527-36.473z" fill="#472d20"/><path d="m161.419 511.989h-63.527v-366.496l63.527-36.473z" fill="#472d20"/><path d="m97.892 511.989h-63.528v-330.023l63.528-36.473z" fill="#b68661"/></g></g><g><g><path d="m414.875 511.989h-316.983v-96.206c.349-87.34 71.152-158.142 158.491-158.142 87.34 0 158.142 70.803 158.491 158.142v96.206z" fill="#8e5f4f"/><path d="m256.383 257.641v254.348h158.491v-96.206c-.348-87.34-71.151-158.142-158.491-158.142z" fill="#714343"/></g><g><path d="m142.892 481.989c-8.284 0-15-6.716-15-15v-51.137c.311-70.7 57.94-128.211 128.491-128.211s128.182 57.511 128.492 128.211v51.137c0 8.284-6.716 15-15 15z" fill="#714343"/><path d="m256.383 287.641v194.348h113.492c8.284 0 15-6.716 15-15v-51.137c-.31-70.7-57.941-128.211-128.492-128.211z" fill="#472d20"/></g></g></g><g><path d="m302.195 184.041 7.993-9.657c5.282-6.382 4.391-15.837-1.992-21.12-6.382-5.282-15.838-4.39-21.119 1.992l-11.409 13.785h-39.334l-11.409-13.785c-5.282-6.382-14.737-7.274-21.119-1.992-6.383 5.282-7.274 14.738-1.992 21.12l7.993 9.657-7.993 9.657c-5.282 6.382-4.391 15.837 1.992 21.12 2.798 2.316 6.186 3.445 9.555 3.445 4.315 0 8.599-1.853 11.564-5.436l11.409-13.785h39.334l11.409 13.785c2.967 3.584 7.249 5.436 11.564 5.436 3.368 0 6.757-1.129 9.555-3.445 6.383-5.282 7.274-14.738 1.992-21.12z" fill="#fbf4f4"/><path d="m302.195 184.041 7.993-9.657c5.282-6.382 4.391-15.837-1.992-21.12-6.382-5.282-15.838-4.39-21.119 1.992l-11.409 13.785h-19.284v30h19.284l11.409 13.785c2.967 3.584 7.249 5.436 11.564 5.436 3.368 0 6.757-1.129 9.555-3.445 6.383-5.282 7.274-14.738 1.992-21.12z" fill="#e9e4f0"/></g></g><g><path d="m33.031 188.918h-28.031c-2.761 0-5-2.239-5-5v-36.11c0-1.791.958-3.445 2.51-4.336l246.405-141.469c4.625-2.655 10.312-2.655 14.937 0l245.638 141.029c1.553.891 2.51 2.546 2.51 4.336v36.55c0 2.761-2.239 5-5 5h-27.265c-.874 0-1.732-.229-2.49-.664l-213.393-122.517c-4.625-2.655-10.312-2.655-14.937 0l-213.394 122.517c-.758.435-1.616.664-2.49.664z" fill="#8e5f4f"/><path d="m263.852 2.003c-2.312-1.328-4.891-1.992-7.469-1.992v63.734c2.578 0 5.156.664 7.469 1.992l213.394 122.517c.758.435 1.616.664 2.49.664h27.264c2.761 0 5-2.239 5-5v-36.55c0-1.791-.958-3.445-2.51-4.336z" fill="#472d20"/></g></g><g><path d="m329.529 511.989h-146.292l17.81-53.01c2.052-6.108 7.776-10.223 14.219-10.223h82.234c6.443 0 12.167 4.115 14.219 10.223z" fill="#ecb84f"/><path d="m256.383 511.989h73.146l-17.81-53.011c-2.052-6.108-7.776-10.223-14.219-10.223h-41.116v63.234z" fill="#e28658"/></g></g></svg>