<svg id="Capa_1" enable-background="new 0 0 512.103 512.103" height="20px" viewBox="0 0 512.103 512.103" width="20px" xmlns="http://www.w3.org/2000/svg"><g><g><g><g><g><g><path d="m421.017 107.174-28.45-4.11 8.39-22.37c-35.72-39.66-87.44-64.63-144.89-64.63-57.46 0-109.2 24.98-144.91 64.66l14.41 21.34-34.48 5.15c-19.01 30.09-30.02 65.71-30.02 103.85 0 106.06 81.4 165 114.27 165h161.46c48.25 0 114.27-72.9 114.27-165 0-38.16-11.02-73.79-30.05-103.89z" fill="#9cdd05"/></g></g></g></g></g><path d="m451.067 211.064c0 92.1-66.02 165-114.27 165h-80.73v-360c57.45 0 109.17 24.97 144.89 64.63l-8.39 22.37 28.45 4.11c19.03 30.1 30.05 65.73 30.05 103.89z" fill="#6b0"/><g><g><g><path d="m211.067 211.064c0 60.83-40.01 111.97-95.15 128.96-.3-.49-.6-.99-.89-1.49-4.18-7.22-10.28-13.14-17.64-17.11-2.23-1.21-4.12-2.96-5.49-5.09-.29-.46-.58-.91-.86-1.37 50.78-7.27 90.03-50.76 90.03-103.9 0-53.15-39.08-96.6-89.98-103.85 5.93-9.4 12.65-18.26 20.07-26.49 57.16 15.33 99.91 67.16 99.91 130.34z" fill="#efe2dd"/></g></g></g><g><g><path d="m421.077 314.994c-.27.45-.55.89-.84 1.34-1.37 2.13-3.26 3.88-5.49 5.09-7.36 3.97-13.46 9.89-17.64 17.11-.3.51-.6 1.02-.91 1.52-55.04-17.05-95.13-68.42-95.13-128.99 0-62.77 42.61-114.95 99.89-130.37 7.41 8.23 14.13 17.08 20.06 26.48-50.72 7.3-89.95 50.79-89.95 103.89 0 52.81 39.19 96.64 90.01 103.93z" fill="#e1d3ce"/></g></g><g><g><path d="m448.767 287.114c-32.47-5.37-62.52 10.3-77.62 36.38-8.31 14.34-20.84 22.57-34.35 22.57h-161.46c-13.51 0-26.04-8.23-34.35-22.57-15.11-26.08-45.16-41.75-77.62-36.38-47.55 7.86-77.15 58.74-56.83 103.95-22.5 50.06 16.14 104.98 69.27 104.97 27.45 0 53.11-14.89 66.35-39.48 6.7-12.45 21.5-20.49 37.71-20.49h152.41c16.21 0 31.01 8.04 37.7 20.49 15.29 28.4 47.02 43.72 78.8 38.46 47.67-7.91 77.09-58.85 56.82-103.95 20.29-45.15-9.151-96.06-56.83-103.95z" fill="#fff5f5"/></g></g><path d="m505.597 391.064c20.27 45.1-9.15 96.04-56.82 103.95-31.78 5.26-63.51-10.06-78.8-38.46-6.69-12.45-21.49-20.49-37.7-20.49h-76.21v-90h80.73c13.51 0 26.04-8.23 34.35-22.57 15.1-26.08 45.15-41.75 77.62-36.38 47.679 7.89 77.12 58.8 56.83 103.95z" fill="#efe2dd"/></g></svg>